<svg width="600" height="400" viewBox="0 0 600 400" fill="none" xmlns="http://www.w3.org/2000/svg">
  <circle cx="50" cy="50" r="1.5" fill="white" opacity="0.4"/>
  <circle cx="150" cy="30" r="1" fill="white" opacity="0.3"/>
  <circle cx="250" cy="70" r="2" fill="white" opacity="0.5"/>
  <circle cx="350" cy="40" r="1" fill="white" opacity="0.3"/>
  <circle cx="450" cy="60" r="1.5" fill="white" opacity="0.4"/>
  <circle cx="550" cy="20" r="1" fill="white" opacity="0.3"/>
  
  <circle cx="100" cy="100" r="1" fill="white" opacity="0.3"/>
  <circle cx="200" cy="120" r="1.5" fill="white" opacity="0.4"/>
  <circle cx="300" cy="80" r="1" fill="white" opacity="0.3"/>
  <circle cx="400" cy="110" r="2" fill="white" opacity="0.5"/>
  <circle cx="500" cy="90" r="1" fill="white" opacity="0.3"/>
  <circle cx="30" cy="150" r="1.5" fill="white" opacity="0.4"/>
  
  <circle cx="80" cy="180" r="1" fill="white" opacity="0.3"/>
  <circle cx="180" cy="150" r="2" fill="white" opacity="0.5"/>
  <circle cx="280" cy="170" r="1" fill="white" opacity="0.3"/>
  <circle cx="380" cy="140" r="1.5" fill="white" opacity="0.4"/>
  <circle cx="480" cy="160" r="1" fill="white" opacity="0.3"/>
  <circle cx="580" cy="180" r="1.5" fill="white" opacity="0.4"/>
  
  <circle cx="60" cy="220" r="1.5" fill="white" opacity="0.4"/>
  <circle cx="160" cy="200" r="1" fill="white" opacity="0.3"/>
  <circle cx="260" cy="230" r="1.5" fill="white" opacity="0.4"/>
  <circle cx="360" cy="210" r="1" fill="white" opacity="0.3"/>
  <circle cx="460" cy="220" r="2" fill="white" opacity="0.5"/>
  <circle cx="560" cy="240" r="1" fill="white" opacity="0.3"/>
  
  <circle cx="40" cy="260" r="1" fill="white" opacity="0.3"/>
  <circle cx="140" cy="280" r="1.5" fill="white" opacity="0.4"/>
  <circle cx="240" cy="260" r="1" fill="white" opacity="0.3"/>
  <circle cx="340" cy="290" r="2" fill="white" opacity="0.5"/>
  <circle cx="440" cy="270" r="1" fill="white" opacity="0.3"/>
  <circle cx="540" cy="250" r="1.5" fill="white" opacity="0.4"/>
  
  <circle cx="20" cy="320" r="1.5" fill="white" opacity="0.4"/>
  <circle cx="120" cy="340" r="1" fill="white" opacity="0.3"/>
  <circle cx="220" cy="310" r="1.5" fill="white" opacity="0.4"/>
  <circle cx="320" cy="330" r="1" fill="white" opacity="0.3"/>
  <circle cx="420" cy="350" r="2" fill="white" opacity="0.5"/>
  <circle cx="520" cy="320" r="1" fill="white" opacity="0.3"/>
  
  <circle cx="70" cy="380" r="1" fill="white" opacity="0.3"/>
  <circle cx="170" cy="360" r="1.5" fill="white" opacity="0.4"/>
  <circle cx="270" cy="390" r="1" fill="white" opacity="0.3"/>
  <circle cx="370" cy="370" r="2" fill="white" opacity="0.5"/>
  <circle cx="470" cy="380" r="1" fill="white" opacity="0.3"/>
  <circle cx="570" cy="360" r="1.5" fill="white" opacity="0.4"/>
</svg> 