<svg width="24" height="24" viewBox="0 0 24 24" fill="none" xmlns="http://www.w3.org/2000/svg">
  <rect width="24" height="24" rx="4" fill="#E6F0FF"/>
  <path d="M12 3C7.58172 3 4 6.58172 4 11C4 12.5733 4.45972 14.0392 5.25 15.2683V19C5.25 19.4142 5.58579 19.75 6 19.75H8C8.41421 19.75 8.75 19.4142 8.75 19V17.25H15.25V19C15.25 19.4142 15.5858 19.75 16 19.75H18C18.4142 19.75 18.75 19.4142 18.75 19V15.2683C19.5403 14.0392 20 12.5733 20 11C20 6.58172 16.4183 3 12 3Z" stroke="#0052CC" stroke-width="1.5" stroke-linecap="round" stroke-linejoin="round"/>
  <path d="M9 12C9.55228 12 10 11.5523 10 11C10 10.4477 9.55228 10 9 10C8.44772 10 8 10.4477 8 11C8 11.5523 8.44772 12 9 12Z" fill="#0052CC"/>
  <path d="M15 12C15.5523 12 16 11.5523 16 11C16 10.4477 15.5523 10 15 10C14.4477 10 14 10.4477 14 11C14 11.5523 14.4477 12 15 12Z" fill="#0052CC"/>
  <path d="M9 15H15" stroke="#0052CC" stroke-width="1.5" stroke-linecap="round"/>
</svg> 