<svg width="24" height="24" viewBox="0 0 24 24" fill="none" xmlns="http://www.w3.org/2000/svg">
  <rect width="24" height="24" rx="4" fill="#E6F0FF"/>
  <path d="M12 3C7.58172 3 4 6.58172 4 11C4 12.5733 4.45972 14.0392 5.25 15.2683V19" stroke="#0052CC" stroke-width="1.5" stroke-linecap="round" stroke-linejoin="round"/>
  <path d="M18.75 19V15.2683C19.5403 14.0392 20 12.5733 20 11C20 6.58172 16.4183 3 12 3" stroke="#0052CC" stroke-width="1.5" stroke-linecap="round" stroke-linejoin="round"/>
  <circle cx="9" cy="11" r="1" fill="#0052CC"/>
  <circle cx="15" cy="11" r="1" fill="#0052CC"/>
  <path d="M6 19C6 17.3431 8.68629 16 12 16C15.3137 16 18 17.3431 18 19" stroke="#0052CC" stroke-width="1.5" stroke-linecap="round" stroke-linejoin="round"/>
  <path d="M9 14L7 16M15 14L17 16" stroke="#0052CC" stroke-width="1.5" stroke-linecap="round" stroke-linejoin="round"/>
</svg> 